<svg width="28" height="28" viewBox="0 0 28 28" fill="none" xmlns="http://www.w3.org/2000/svg">
<g clip-path="url(#clip0_65_37)">
<path d="M14.0311 9.45311C13.7853 9.45311 13.5945 9.34319 13.4587 9.12333C13.3239 8.90452 13.3239 8.68519 13.4587 8.46533L17.5607 1.31911C17.7079 1.08163 17.8972 0.930741 18.1284 0.866444C18.3597 0.801111 18.5967 0.809407 18.8393 0.891333C20.5691 1.51563 22.1361 2.48733 23.5402 3.80644C24.9444 5.12556 26.0322 6.65259 26.8038 8.38756C26.9334 8.68519 26.9287 8.93719 26.7898 9.14356C26.6519 9.34993 26.4211 9.45311 26.0976 9.45311H14.0311ZM8.918 11.8969L4.78956 4.61689C4.6423 4.37837 4.6003 4.13052 4.66356 3.87333C4.72785 3.61615 4.85541 3.41393 5.04622 3.26667C6.29067 2.22548 7.68133 1.42074 9.21822 0.852445C10.7551 0.284148 12.349 0 14 0C14.2489 0 14.5273 0.00933316 14.8353 0.0279998C15.1423 0.0477035 15.4311 0.0736298 15.7018 0.105778C16.0056 0.136889 16.2156 0.261852 16.3318 0.480667C16.449 0.700519 16.4267 0.956148 16.2649 1.24756L10.0691 11.8969C9.9343 12.1167 9.74244 12.2267 9.49356 12.2267C9.24467 12.2267 9.05281 12.1167 8.918 11.8969ZM1.23356 17.2916C1.00748 17.2916 0.798 17.2086 0.605111 17.0427C0.412222 16.8767 0.289333 16.6823 0.236444 16.4593C0.145185 16.0144 0.0829631 15.5934 0.0497779 15.1962C0.0165927 14.799 0 14.4003 0 14C0 12.5461 0.230741 11.1186 0.692222 9.71756C1.15474 8.31756 1.83348 6.98081 2.72844 5.70733C2.93378 5.44496 3.1697 5.31378 3.43622 5.31378C3.70274 5.31378 3.91948 5.46778 4.08644 5.77578L10.0816 16.3038C10.2164 16.5226 10.2148 16.7419 10.0769 16.9618C9.93793 17.1816 9.74607 17.2916 9.50133 17.2916H1.23356ZM9.31 27.1693C7.49933 26.5181 5.866 25.5147 4.41 24.1593C2.95296 22.8029 1.86148 21.2572 1.13556 19.5222C1.00593 19.2246 1.01681 18.9726 1.16822 18.7662C1.31963 18.5599 1.55711 18.4567 1.88067 18.4567H14.1696C14.4143 18.4567 14.5994 18.5666 14.7249 18.7864C14.8504 19.0053 14.8452 19.2246 14.7093 19.4444L10.598 26.7229C10.4497 26.9604 10.2599 27.1159 10.0287 27.1896C9.79741 27.2632 9.55889 27.2564 9.31 27.1693ZM14 28C13.7563 28 13.4976 27.9907 13.2238 27.972C12.95 27.9533 12.6944 27.9274 12.4569 27.8942C12.1541 27.8424 11.9425 27.7076 11.8222 27.4898C11.703 27.2689 11.7237 27.0231 11.8844 26.7524L18.032 16.2991C18.1679 16.0813 18.3675 15.9724 18.6309 15.9724C18.8943 15.9724 19.0939 16.0813 19.2298 16.2991L23.2493 23.3458C23.3914 23.5708 23.435 23.8119 23.38 24.0691C23.325 24.3263 23.1954 24.5379 22.9911 24.7038C21.7591 25.745 20.3659 26.5544 18.8113 27.132C17.2568 27.7096 15.653 27.999 14 28ZM23.94 22.2413L17.9278 11.6371C17.793 11.4173 17.7893 11.1979 17.9169 10.9791C18.0444 10.7603 18.2311 10.6504 18.4769 10.6493H26.768C26.993 10.6493 27.2025 10.7318 27.3964 10.8967C27.5893 11.0616 27.7117 11.2565 27.7636 11.4816C27.8361 11.9067 27.8932 12.3273 27.9347 12.7431C27.9782 13.16 28 13.579 28 14C28 15.5141 27.7739 16.9597 27.3218 18.3369C26.8707 19.713 26.1873 21.0342 25.2716 22.3004C25.0849 22.5462 24.8567 22.6707 24.5871 22.6738C24.3175 22.6769 24.1018 22.5327 23.94 22.2413Z" fill="black"/>
</g>
<defs>
<clipPath id="clip0_65_37">
<rect width="28" height="28" fill="white"/>
</clipPath>
</defs>
</svg>
