<svg width="48" height="48" viewBox="0 0 48 48" fill="none" xmlns="http://www.w3.org/2000/svg">
<rect x="0.5" y="0.5" width="47" height="47" rx="3.5" stroke="#082B13" stroke-dasharray="4 4"/>
<path d="M22.7794 4.00017C21.7726 3.98726 20.7416 4.72609 20.2766 5.89238C19.7044 7.32769 20.2042 8.86757 21.3922 9.33139C22.5802 9.79538 24.0071 9.00908 24.5793 7.57368C25.1515 6.13837 24.6517 4.59849 23.4637 4.13467C23.2458 4.04883 23.014 4.00324 22.7795 4.00017H22.7794ZM29.1483 5.34423C28.2136 5.34474 27.2105 5.85224 26.5258 6.76723C25.482 8.16155 25.5715 9.97685 26.7253 10.823C27.8793 11.6693 29.6597 11.2239 30.7032 9.82961C31.747 8.43529 31.6575 6.61999 30.5035 5.77381C30.107 5.48287 29.6379 5.34398 29.1484 5.34431L29.1483 5.34423ZM34.8781 8.50916C33.9975 8.49845 33.0427 8.86866 32.282 9.59762C30.9299 10.8936 30.7037 12.8312 31.7763 13.9275C32.8487 15.0238 34.8146 14.8624 36.1667 13.5666C37.5189 12.2704 37.7452 10.3329 36.6727 9.2366C36.2034 8.75676 35.563 8.51751 34.878 8.50916H34.8781ZM21.5493 11.2131C19.6314 11.1894 17.7682 11.7944 16.1389 13.237C10.9384 17.842 5.87249 24.4619 4.17595 35.0841C2.1944 47.4916 17.6359 45.2504 16.1071 38.6231C14.1541 30.1574 19.015 26.7232 25.3089 28.1529C28.1068 28.7888 30.9783 27.7397 32.6363 24.7429C34.6302 21.1392 32.0034 15.735 27.2792 12.9682C25.438 11.8896 23.4673 11.2366 21.5494 11.213L21.5493 11.2131ZM40.0595 13.7509C39.1632 13.7528 38.2146 13.9887 37.3251 14.4783C34.9534 15.7837 33.9043 18.4005 34.9846 20.3235C36.0652 22.2464 38.8647 22.7463 41.2364 21.4409C43.6082 20.1354 44.6546 17.5186 43.5742 15.5956C42.8989 14.3938 41.5535 13.748 40.0596 13.7509H40.0595Z" fill="#2BA84A"/>
</svg>
