<svg width="48" height="48" viewBox="0 0 48 48" fill="none" xmlns="http://www.w3.org/2000/svg">
<rect x="0.5" y="0.5" width="47" height="47" rx="3.5" stroke="#082B13" stroke-dasharray="4 4"/>
<g clip-path="url(#clip0_3_46)">
<path d="M24.6 19.8C24.6 22.8 22.8 27 22.8 27M23.4 21C23.4 21 25.2 16.2 21 12.6C16.8 9.00003 10.2 10.2 10.2 10.2C10.2 10.2 10.2 15 13.8 18.6C17.4 22.2 23.4 21 23.4 21ZM24.6 18.6C24.6 18.6 22.8 13.8 27 10.2C31.2 6.60003 37.8 7.80003 37.8 7.80003C37.8 7.80003 37.8 12.6 34.2 16.2C30.6 19.8 24.6 18.6 24.6 18.6ZM15 27H30.6C20.4363 26.2335 21 37.6382 22.8 37.8C13.8 37.8 15 27 15 27Z" stroke="#2BA84A" stroke-width="3.6" stroke-linecap="round" stroke-linejoin="round"/>
<path fill-rule="evenodd" clip-rule="evenodd" d="M31.3199 38.32C33.0872 38.32 34.5199 36.8873 34.5199 35.12C34.5199 33.3527 33.0872 31.92 31.3199 31.92C29.5526 31.92 28.1199 33.3527 28.1199 35.12C28.1199 36.8873 29.5526 38.32 31.3199 38.32ZM31.3199 40.72C32.4319 40.72 33.4681 40.3959 34.3393 39.837L37.752 43.2497L39.4491 41.5527L36.0365 38.1402C36.5956 37.2687 36.9199 36.2322 36.9199 35.12C36.9199 32.0272 34.4127 29.52 31.3199 29.52C28.2271 29.52 25.72 32.0272 25.72 35.12C25.72 38.2128 28.2271 40.72 31.3199 40.72Z" fill="#2BA84A"/>
</g>
<defs>
<clipPath id="clip0_3_46">
<rect width="31.2" height="40.8" fill="white" transform="translate(8.40002 3.60001)"/>
</clipPath>
</defs>
</svg>
