<svg width="48" height="48" viewBox="0 0 48 48" fill="none" xmlns="http://www.w3.org/2000/svg">
<rect x="0.5" y="0.5" width="47" height="47" rx="3.5" stroke="#082B13" stroke-dasharray="4 4"/>
<path fill-rule="evenodd" clip-rule="evenodd" d="M25.9739 4.50083C23.5015 7.37643 23.3419 12.0468 25.5511 15.1464V16.2244C25.5511 16.5576 25.5245 16.8866 25.4713 17.2114L22.2933 16.2594C22.344 15.0987 22.006 13.9542 21.3331 13.0072C20.6601 12.0601 19.6905 11.3645 18.5777 11.0304L13.6777 9.56043C12.8657 12.3184 14.4197 15.2164 17.1777 16.0564L22.0777 17.5264L22.0805 17.5208L25.1381 18.4378C24.9842 18.8305 24.7895 19.2059 24.5571 19.5578C23.7731 20.7338 23.3811 22.1198 23.3811 23.5198V23.9048L20.2269 22.9598C20.279 21.801 19.9427 20.658 19.2714 19.712C18.6001 18.766 17.6322 18.0712 16.5211 17.7378L11.6211 16.2678C10.7951 19.0258 12.3631 21.9238 15.1071 22.7638L20.0071 24.2338L20.0099 24.2212L23.3797 25.2306V26.8126C20.5651 26.9378 17.8537 27.9092 15.5999 29.6H13.4999C13.1079 29.6 12.7999 29.908 12.7999 30.3V34.5C12.7999 34.892 13.1079 35.2 13.4999 35.2H14.2111L15.3031 41.7604C15.4851 42.8244 16.3951 43.5944 17.4591 43.5944H30.5491C31.6131 43.5944 32.5371 42.8244 32.7051 41.7604L33.8083 35.2H34.4985C34.8905 35.2 35.1985 34.892 35.1985 34.5V30.3C35.1985 29.908 34.8905 29.6 34.4985 29.6H32.3999C30.1519 27.9137 27.4484 26.9429 24.6411 26.814V26.2344L26.8643 25.568L26.8671 25.5764L31.7671 24.1064C34.5111 23.2664 36.0791 20.3684 35.2531 17.6104L30.3531 19.0804C29.2424 19.4159 28.2751 20.1117 27.6038 21.0581C26.9325 22.0045 26.5955 23.1474 26.6459 24.3066L24.6397 24.9086V23.5184C24.6397 22.3424 24.9757 21.1944 25.6197 20.2144C26.0484 19.5669 26.3685 18.8538 26.5675 18.1032L28.0109 17.6706L28.0151 17.6804L32.9151 16.2104C35.6591 15.3704 37.2271 12.4724 36.4011 9.71443L31.5011 11.1844C30.3878 11.5156 29.4177 12.2104 28.7456 13.1578C28.0736 14.1051 27.7385 15.2504 27.7939 16.4106L26.7943 16.7088C26.8055 16.5476 26.8111 16.386 26.8111 16.2244V14.7292C28.7851 11.722 28.6619 7.35123 26.3911 4.51623C26.2763 4.36363 26.0873 4.36223 25.9739 4.50083ZM15.6307 35.2H32.3887L31.3247 41.528L31.3219 41.542C31.2908 41.7247 31.196 41.8905 31.0543 42.01C30.9125 42.1294 30.7331 42.1947 30.5477 42.1944H17.4577C17.2704 42.1928 17.0897 42.1248 16.9477 42.0025C16.8057 41.8803 16.7116 41.7117 16.6821 41.5266L15.6307 35.2ZM33.7999 33.7888V31H14.1999V33.8H14.2097V33.7888H33.7999Z" fill="#2BA84A"/>
</svg>
