<svg width="77" height="68" viewBox="0 0 77 68" fill="none" xmlns="http://www.w3.org/2000/svg">
<rect x="1" y="1" width="74.9999" height="66" rx="7" stroke="black" stroke-width="2" stroke-dasharray="4 4"/>
<path d="M22.3 25.9C22.3 23.2744 23.343 20.7563 25.1996 18.8996C27.0563 17.043 29.5744 16 32.2 16C34.8256 16 37.3437 17.043 39.2004 18.8996C41.057 20.7563 42.1 23.2744 42.1 25.9C42.1 28.5256 41.057 31.0437 39.2004 32.9004C37.3437 34.757 34.8256 35.8 32.2 35.8C29.5744 35.8 27.0563 34.757 25.1996 32.9004C23.343 31.0437 22.3 28.5256 22.3 25.9ZM16 46.6C16 44.2131 16.9482 41.9239 18.636 40.236C20.3239 38.5482 22.6131 37.6 25 37.6H32.2H39.4C41.7869 37.6 35.8 37.6 32.2 37.6C33.1 42.1 33.1 43 34 45.7L37.6 52H16V46.6Z" fill="black"/>
<g clip-path="url(#clip0_111_612)">
<path d="M39.7448 34.3375L40.6502 36.1235C41.0459 35.9458 41.48 35.7843 41.9263 35.6507C42.4266 35.5009 42.9391 35.3872 43.4293 35.3289L41.9263 32.2001L39.7448 34.3375ZM51.2145 35.6612C50.4807 36.528 48.4661 37.4469 46.0466 38.24C46.1388 39.1635 46.1988 40.2129 46.1996 41.2406C46.2001 42.2901 46.1374 43.299 45.9605 44.118C45.872 44.5275 45.7575 44.8915 45.5808 45.2025C45.404 45.5136 45.1412 45.7982 44.7616 45.8987C44.3819 45.9992 44.0126 45.8832 43.7034 45.7018C43.3942 45.5205 43.11 45.2636 42.8263 44.9531C42.2589 44.3318 41.6942 43.4874 41.1633 42.5782C40.6303 41.6653 40.1376 40.7012 39.7448 39.8395C37.1837 40.3137 34.9527 40.4971 34.0002 40.1947C35.5522 45.9125 38.0295 50.0799 40.7678 52.35H49.8013C52.4589 49.3919 53.3001 43.3458 51.2145 35.6612ZM44.0233 36.3398C43.9814 36.3402 43.9375 36.341 43.8934 36.3433C43.4043 36.368 42.8066 36.4843 42.2269 36.6579C41.6471 36.8315 41.0826 37.062 40.6484 37.2943C40.3528 37.4524 40.1609 37.6049 40.035 37.7179C40.3282 38.6114 41.1395 40.4517 42.0723 42.0491C42.5811 42.9205 43.1242 43.7183 43.6034 44.2429C43.8429 44.5052 44.0676 44.6971 44.2344 44.7948C44.4012 44.8927 44.4766 44.8871 44.4928 44.8828C44.509 44.8784 44.5727 44.8479 44.6669 44.6823C44.7608 44.5167 44.8595 44.2414 44.9341 43.8965C45.083 43.2067 45.1491 42.2461 45.1484 41.2405C45.1473 39.3619 44.9082 37.3192 44.7073 36.4275C44.5537 36.3772 44.3172 36.3371 44.0233 36.3398Z" fill="black"/>
</g>
<path d="M57.3999 23.2003C57.3999 23.2003 51.9999 26.8003 51.9999 33.1003M49.614 24.265C48.9009 24.7972 48.02 25.0549 47.1324 24.9908C46.2449 24.9266 45.4102 24.545 44.781 23.9158C42.5994 21.7351 43.035 16.9363 43.035 16.9363C43.035 16.9363 47.8347 16.4998 50.0154 18.6814C50.4261 19.0905 50.7346 19.5905 50.916 20.1411C51.0974 20.6917 51.1465 21.2772 51.0594 21.8503" stroke="black" stroke-width="1.35" stroke-linecap="round" stroke-linejoin="round"/>
<path d="M54.6677 25.7365C54.0932 25.1116 53.7825 24.2888 53.8005 23.4401C53.8184 22.5915 54.1636 21.7826 54.764 21.1825C56.7026 19.2439 60.9686 19.6318 60.9686 19.6318C60.9686 19.6318 61.3556 23.8978 59.417 25.8364C59.095 26.159 58.7094 26.411 58.2847 26.5765C57.86 26.742 57.4055 26.8173 56.9501 26.7976M46.6001 20.5003C46.6001 20.5003 52.0001 25.0003 52.0001 33.1003" stroke="black" stroke-width="1.35" stroke-linecap="round" stroke-linejoin="round"/>
<defs>
<clipPath id="clip0_111_612">
<rect width="28.8" height="28.8" fill="white" transform="translate(28.6001 23.2)"/>
</clipPath>
</defs>
</svg>
