<svg width="20" height="21" viewBox="0 0 20 21" fill="none" xmlns="http://www.w3.org/2000/svg">
<mask id="mask0_119_843" style="mask-type:luminance" maskUnits="userSpaceOnUse" x="-1" y="0" width="22" height="21">
<path d="M19.7745 8.37818H10.2327V12.3345H15.725C15.213 14.848 13.072 16.2909 10.2327 16.2909C6.88141 16.2909 4.18177 13.5913 4.18177 10.24C4.18177 6.88873 6.88141 4.18909 10.2327 4.18909C11.6756 4.18909 12.9789 4.70109 14.0029 5.53891L16.9818 2.56C15.1665 0.977455 12.8392 0 10.2327 0C4.55413 0 -0.00732422 4.56146 -0.00732422 10.24C-0.00732422 15.9186 4.55413 20.48 10.2327 20.48C15.3527 20.48 20.0072 16.7564 20.0072 10.24C20.0072 9.63491 19.9141 8.98328 19.7745 8.37818Z" fill="white"/>
</mask>
<g mask="url(#mask0_119_843)">
<path d="M-0.938721 16.2908V4.18896L6.97401 10.2399L-0.938721 16.2908Z" fill="#FBBC05"/>
</g>
<mask id="mask1_119_843" style="mask-type:luminance" maskUnits="userSpaceOnUse" x="-1" y="0" width="22" height="21">
<path d="M19.7745 8.37818H10.2327V12.3345H15.725C15.213 14.848 13.072 16.2909 10.2327 16.2909C6.88141 16.2909 4.18177 13.5913 4.18177 10.24C4.18177 6.88873 6.88141 4.18909 10.2327 4.18909C11.6756 4.18909 12.9789 4.70109 14.0029 5.53891L16.9818 2.56C15.1665 0.977455 12.8392 0 10.2327 0C4.55413 0 -0.00732422 4.56146 -0.00732422 10.24C-0.00732422 15.9186 4.55413 20.48 10.2327 20.48C15.3527 20.48 20.0072 16.7564 20.0072 10.24C20.0072 9.63491 19.9141 8.98328 19.7745 8.37818Z" fill="white"/>
</mask>
<g mask="url(#mask1_119_843)">
<path d="M-0.938721 4.18861L6.97401 10.2395L10.2322 7.40024L21.4031 5.58497V-0.931396H-0.938721V4.18861Z" fill="#EA4335"/>
</g>
<mask id="mask2_119_843" style="mask-type:luminance" maskUnits="userSpaceOnUse" x="-1" y="0" width="22" height="21">
<path d="M19.7745 8.37818H10.2327V12.3345H15.725C15.213 14.848 13.072 16.2909 10.2327 16.2909C6.88141 16.2909 4.18177 13.5913 4.18177 10.24C4.18177 6.88873 6.88141 4.18909 10.2327 4.18909C11.6756 4.18909 12.9789 4.70109 14.0029 5.53891L16.9818 2.56C15.1665 0.977455 12.8392 0 10.2327 0C4.55413 0 -0.00732422 4.56146 -0.00732422 10.24C-0.00732422 15.9186 4.55413 20.48 10.2327 20.48C15.3527 20.48 20.0072 16.7564 20.0072 10.24C20.0072 9.63491 19.9141 8.98328 19.7745 8.37818Z" fill="white"/>
</mask>
<g mask="url(#mask2_119_843)">
<path d="M-0.938721 16.2904L13.0249 5.58497L16.702 6.05042L21.4031 -0.931396V21.4104H-0.938721V16.2904Z" fill="#34A853"/>
</g>
<mask id="mask3_119_843" style="mask-type:luminance" maskUnits="userSpaceOnUse" x="-1" y="0" width="22" height="21">
<path d="M19.7745 8.37818H10.2327V12.3345H15.725C15.213 14.848 13.072 16.2909 10.2327 16.2909C6.88141 16.2909 4.18177 13.5913 4.18177 10.24C4.18177 6.88873 6.88141 4.18909 10.2327 4.18909C11.6756 4.18909 12.9789 4.70109 14.0029 5.53891L16.9818 2.56C15.1665 0.977455 12.8392 0 10.2327 0C4.55413 0 -0.00732422 4.56146 -0.00732422 10.24C-0.00732422 15.9186 4.55413 20.48 10.2327 20.48C15.3527 20.48 20.0072 16.7564 20.0072 10.24C20.0072 9.63491 19.9141 8.98328 19.7745 8.37818Z" fill="white"/>
</mask>
<g mask="url(#mask3_119_843)">
<path d="M21.4038 21.4108L6.97467 10.2399L5.11285 8.84351L21.4038 4.18896V21.4108Z" fill="#4285F4"/>
</g>
</svg>
