<svg width="450" height="109" viewBox="0 0 450 109" fill="none" xmlns="http://www.w3.org/2000/svg">
<path d="M6.38144 102.727L2 107.5H449V2.5C440.235 5.97151 431.471 16.3847 422.706 16.8181C413.941 17.2529 405.176 7.70659 396.412 11.1781C387.647 14.6496 378.882 31.1362 370.118 32.8727C361.353 34.6078 352.588 21.5913 343.824 26.7979C335.059 32.0045 326.294 55.4341 317.529 64.9791C308.765 74.5254 300 70.1857 291.235 73.2237C282.471 76.2605 273.706 86.6736 264.941 73.6572C256.176 60.6407 247.412 24.1946 238.647 16.3847C229.882 8.57481 221.118 29.4012 212.353 48.9259C203.588 68.4506 194.824 86.6737 186.059 90.1452C177.294 93.6153 168.529 82.3353 159.765 70.6205C151 58.9056 142.235 46.756 133.471 41.9842C124.706 37.2111 115.941 39.8144 107.176 42.4176L107.176 42.4177C98.4117 45.021 89.647 47.6242 80.8824 54.5659C72.1177 61.5089 63.3529 72.789 54.5882 77.5621C45.8235 82.3353 37.0588 80.5988 28.2941 84.5038C19.5367 88.4055 10.7794 97.9391 6.39245 102.715L6.38144 102.727Z" fill="url(#paint0_linear_144_53)"/>
<path d="M2 107.5L6.38144 102.727C10.7647 97.9551 19.5294 88.4087 28.2941 84.5038C37.0588 80.5988 45.8235 82.3353 54.5882 77.5621C63.3529 72.789 72.1177 61.5089 80.8824 54.5659C89.6471 47.6242 98.4118 45.0209 107.176 42.4176C115.941 39.8143 124.706 37.2111 133.471 41.9842C142.235 46.756 151 58.9056 159.765 70.6205C168.529 82.3353 177.294 93.6153 186.059 90.1452C194.824 86.6737 203.588 68.4506 212.353 48.9259C221.118 29.4012 229.882 8.57481 238.647 16.3847C247.412 24.1946 256.176 60.6407 264.941 73.6572C273.706 86.6736 282.471 76.2605 291.235 73.2237C300 70.1857 308.765 74.5254 317.529 64.9791C326.294 55.4341 335.059 32.0045 343.824 26.7979C352.588 21.5913 361.353 34.6078 370.118 32.8727C378.882 31.1362 387.647 14.6496 396.412 11.1781C405.176 7.70659 413.941 17.2529 422.706 16.8181C431.471 16.3847 440.235 5.97151 449 2.5" stroke="#E66E42" stroke-width="4"/>
<defs>
<linearGradient id="paint0_linear_144_53" x1="225.5" y1="2.5" x2="225.578" y2="84.1613" gradientUnits="userSpaceOnUse">
<stop stop-color="#E66E42" stop-opacity="0.4"/>
<stop offset="1" stop-color="#E66E42" stop-opacity="0"/>
</linearGradient>
</defs>
</svg>
