<svg width="136" height="32" viewBox="0 0 136 32" fill="none" xmlns="http://www.w3.org/2000/svg">
<rect x="1" y="1" width="134" height="30" rx="15" fill="#F1FCF3"/>
<rect x="1" y="1" width="134" height="30" rx="15" stroke="black" stroke-width="2"/>
<path d="M12.3936 10.4226C12.3936 9.60658 12.2816 9.00658 12.0576 8.62258C11.8336 8.22258 11.3856 8.02258 10.7136 8.02258H10.4736V7.30258H21.0576C22.4176 7.30258 23.0976 7.94258 23.0976 9.22258V11.2626H22.3776C22.3776 10.2706 22.1216 9.54258 21.6096 9.07858C21.1136 8.61458 20.3696 8.38258 19.3776 8.38258H15.5136V14.3826H21.7536V15.4626H15.5136V22.0626H19.6176C20.5296 22.0626 21.2896 21.8626 21.8976 21.4626C22.5056 21.0466 23.0096 20.3346 23.4096 19.3266L24.0576 19.5666L23.3616 21.4626C23.1536 22.0386 22.9056 22.4626 22.6176 22.7346C22.3296 23.0066 21.8816 23.1426 21.2736 23.1426H12.3936V10.4226ZM34.2722 23.6226C32.6242 23.6226 31.2002 23.2706 30.0002 22.5666C28.8162 21.8466 27.9122 20.8706 27.2882 19.6386C26.6642 18.4066 26.3522 17.0146 26.3522 15.4626C26.3522 13.8626 26.6962 12.4066 27.3842 11.0946C28.0722 9.76658 29.0162 8.72658 30.2162 7.97458C31.4322 7.20658 32.7842 6.82258 34.2722 6.82258C35.6802 6.82258 36.8562 7.00658 37.8002 7.37458C38.7442 7.72658 39.4642 8.19058 39.9602 8.76658C40.2482 9.13458 40.4242 9.59058 40.4882 10.1346C40.5522 10.6786 40.5842 11.4386 40.5842 12.4146H39.8642C39.5602 10.9426 39.0002 9.82258 38.1842 9.05458C37.3682 8.28658 36.3042 7.90258 34.9922 7.90258C33.3602 7.90258 32.0722 8.47858 31.1282 9.63058C30.1842 10.7826 29.7122 12.7266 29.7122 15.4626C29.7122 17.4946 30.1442 19.1826 31.0082 20.5266C31.8722 21.8706 33.2002 22.5426 34.9922 22.5426C36.1122 22.5426 37.1362 22.2466 38.0642 21.6546C39.0082 21.0626 39.7682 20.2146 40.3442 19.1106L41.1842 19.7586C40.4162 21.1026 39.4882 22.0866 38.4002 22.7106C37.3122 23.3186 35.9362 23.6226 34.2722 23.6226ZM69.1613 8.38258H67.4573C66.5613 8.38258 65.8733 8.60658 65.3933 9.05458C64.9293 9.50258 64.6973 10.2386 64.6973 11.2626H63.9773V9.22258C63.9773 7.94258 64.6573 7.30258 66.0173 7.30258H77.2973V8.38258H72.2813V23.1426H69.1613V8.38258ZM86.1895 12.1026C86.4775 12.3106 86.6855 12.5426 86.8135 12.7986C86.9415 13.0386 87.0055 13.1666 87.0055 13.1826L85.7815 14.1186C85.6695 13.9746 85.5255 13.8226 85.3495 13.6626C84.9975 13.3426 84.5895 13.1826 84.1255 13.1826C83.1975 13.1826 82.4855 13.4306 81.9895 13.9266L82.0375 14.2866C82.0695 14.5746 82.0855 14.8386 82.0855 15.0786V23.1426H78.9655V14.9826C78.9655 14.1666 78.8535 13.5666 78.6295 13.1826C78.4215 12.7826 77.9815 12.5826 77.3095 12.5826H77.0695V11.8626H79.4455C79.9895 11.8626 80.4135 11.9346 80.7175 12.0786C81.0375 12.2066 81.2855 12.4306 81.4615 12.7506C82.3255 11.9986 83.3335 11.6226 84.4855 11.6226C85.1735 11.6226 85.7415 11.7826 86.1895 12.1026ZM92.8127 23.3826C91.5167 23.3826 90.5087 23.0946 89.7887 22.5186C89.0847 21.9266 88.7327 21.1346 88.7327 20.1426C88.7327 19.3426 88.9167 18.6786 89.2847 18.1506C89.6687 17.6226 90.3327 17.2226 91.2767 16.9506C92.2207 16.6786 93.5327 16.5426 95.2127 16.5426H95.5727C95.5727 15.1506 95.3807 14.1666 94.9967 13.5906C94.6127 12.9986 94.0447 12.7026 93.2927 12.7026C92.6687 12.7026 92.1567 12.8546 91.7567 13.1586C91.3567 13.4626 91.0687 14.0306 90.8927 14.8626H89.5727C89.5727 14.3186 89.6047 13.8546 89.6687 13.4706C89.7487 13.0866 89.9167 12.7506 90.1727 12.4626C90.6687 11.9026 91.8687 11.6226 93.7727 11.6226C95.3727 11.6226 96.5887 12.0466 97.4207 12.8946C98.2687 13.7266 98.6927 14.9826 98.6927 16.6626V23.1426H96.6527L95.8127 22.0626H95.6927C95.5487 22.2866 95.3247 22.5106 95.0207 22.7346C94.4767 23.1666 93.7407 23.3826 92.8127 23.3826ZM93.5327 22.1826C93.8687 22.1826 94.1567 22.1186 94.3967 21.9906C94.6367 21.8466 94.8687 21.6546 95.0927 21.4146C95.3007 21.1906 95.4607 20.9266 95.5727 20.6226V17.6226H95.2127C94.0767 17.6226 93.2527 17.8306 92.7407 18.2466C92.2287 18.6466 91.9727 19.2786 91.9727 20.1426C91.9727 20.7986 92.1087 21.3026 92.3807 21.6546C92.6527 22.0066 93.0367 22.1826 93.5327 22.1826ZM107.527 23.3826C106.295 23.3826 105.247 23.1186 104.383 22.5906C103.519 22.0626 102.863 21.3586 102.415 20.4786C101.983 19.5826 101.767 18.5906 101.767 17.5026C101.767 16.4146 101.983 15.4306 102.415 14.5506C102.863 13.6546 103.519 12.9426 104.383 12.4146C105.247 11.8866 106.295 11.6226 107.527 11.6226C109.447 11.6226 110.687 11.9026 111.247 12.4626C111.519 12.7346 111.687 13.0946 111.751 13.5426C111.815 13.9906 111.847 14.7506 111.847 15.8226H111.127C111.063 14.8146 110.751 14.0466 110.191 13.5186C109.631 12.9746 108.863 12.7026 107.887 12.7026C107.007 12.7026 106.303 13.1106 105.775 13.9266C105.263 14.7266 105.007 15.9186 105.007 17.5026C105.007 20.7026 106.007 22.3026 108.007 22.3026C108.775 22.3026 109.415 22.1346 109.927 21.7986C110.455 21.4466 110.959 20.9506 111.439 20.3106L112.183 20.8626C111.719 21.5826 111.135 22.1826 110.431 22.6626C109.727 23.1426 108.759 23.3826 107.527 23.3826ZM124.209 23.3826C123.505 23.3826 122.857 23.2386 122.265 22.9506C121.689 22.6466 121.145 22.1506 120.633 21.4626L118.329 18.4386V23.1426H115.209V10.4226C115.209 9.60658 115.097 9.00658 114.873 8.62258C114.649 8.22258 114.201 8.02258 113.529 8.02258H113.289V7.30258H116.169C116.745 7.30258 117.185 7.39858 117.489 7.59058C117.793 7.78258 118.009 8.10258 118.137 8.55058C118.265 8.98258 118.329 9.60658 118.329 10.4226V17.2626L121.233 13.7106C121.777 13.0546 122.289 12.5826 122.769 12.2946C123.249 12.0066 123.889 11.8626 124.689 11.8626H125.169V12.4866C124.689 12.4866 124.257 12.5826 123.873 12.7746C123.489 12.9666 123.121 13.2706 122.769 13.6866L120.441 16.5186L123.633 20.7426C124.401 21.7826 125.145 22.3906 125.865 22.5666V23.1426C125.737 23.2066 125.497 23.2626 125.145 23.3106C124.809 23.3586 124.497 23.3826 124.209 23.3826Z" fill="#082B13"/>
<g clip-path="url(#clip0_1_99)">
<path d="M61.6448 4.6524C58.1382 9.5956 61.0667 15.1862 58.8947 19.2822C57.2601 22.3649 53.269 22.974 50.8406 23.0583C50.8406 23.0583 50.2409 25.438 50.2972 28.2251C50.3168 29.16 48.4624 28.9554 48.4204 28.1754C47.8918 18.2994 57.0885 9.11158 57.0885 9.11158C57.0885 9.11158 49.1171 12.3029 46.9656 21.4882C46.1229 19.991 43.9898 15.8743 46.8722 11.4622C50.7782 5.47712 62.4639 3.49913 61.6448 4.6524Z" fill="#3DA35D"/>
</g>
<defs>
<clipPath id="clip0_1_99">
<rect width="24" height="24" fill="white" transform="translate(39.001 10.1428) rotate(-25)"/>
</clipPath>
</defs>
</svg>
