<svg width="71" height="68" viewBox="0 0 71 68" fill="none" xmlns="http://www.w3.org/2000/svg">
<rect x="1.2998" y="1" width="68.4004" height="66" rx="7" stroke="black" stroke-width="2" stroke-dasharray="4 4"/>
<path d="M22.5998 25.9C22.5998 23.2744 23.6428 20.7563 25.4994 18.8996C27.3561 17.043 29.8742 16 32.4998 16C35.1254 16 37.6436 17.043 39.5002 18.8996C41.3568 20.7563 42.3998 23.2744 42.3998 25.9C42.3998 28.5256 41.3568 31.0437 39.5002 32.9004C37.6436 34.757 35.1254 35.8 32.4998 35.8C29.8742 35.8 27.3561 34.757 25.4994 32.9004C23.6428 31.0437 22.5998 28.5256 22.5998 25.9ZM16.2998 46.6C16.2998 44.2131 17.248 41.9239 18.9358 40.236C20.6237 38.5482 22.9129 37.6 25.2998 37.6H32.4998H39.6998C42.0868 37.6 36.0998 37.6 32.4998 37.6C33.3998 42.1 33.3998 43 34.2998 45.7L37.8998 52H16.2998V46.6Z" fill="black"/>
<path d="M51.1002 42.0997C51.1002 42.0997 45.7002 45.6997 45.7002 51.9997M43.3143 43.1644C42.6012 43.6967 41.7203 43.9543 40.8327 43.8902C39.9452 43.8261 39.1105 43.4444 38.4813 42.8152C36.2997 40.6345 36.7353 35.8357 36.7353 35.8357C36.7353 35.8357 41.535 35.3992 43.7157 37.5808C44.1264 37.9899 44.4349 38.49 44.6163 39.0405C44.7977 39.5911 44.8468 40.1766 44.7597 40.7497" stroke="black" stroke-width="1.35" stroke-linecap="round" stroke-linejoin="round"/>
<path d="M48.368 44.6359C47.7936 44.011 47.4828 43.1882 47.5008 42.3395C47.5187 41.4909 47.8639 40.682 48.4643 40.0819C50.4029 38.1433 54.6689 38.5312 54.6689 38.5312C54.6689 38.5312 55.0559 42.7972 53.1173 44.7358C52.7953 45.0584 52.4097 45.3104 51.985 45.4759C51.5603 45.6414 51.1058 45.7167 50.6504 45.697M40.3004 39.3997C40.3004 39.3997 45.7004 43.8997 45.7004 51.9997" stroke="black" stroke-width="1.35" stroke-linecap="round" stroke-linejoin="round"/>
</svg>
