<svg width="32" height="32" viewBox="0 0 32 32" fill="none" xmlns="http://www.w3.org/2000/svg">
<circle cx="16.002" cy="16" r="16" fill="#082B13"/>
<path d="M24.252 24.25L18.752 18.75M7.75195 14.1667C7.75195 15.0093 7.91793 15.8437 8.24039 16.6222C8.56286 17.4007 9.03551 18.1081 9.63135 18.7039C10.2272 19.2998 10.9346 19.7724 11.7131 20.0949C12.4916 20.4174 13.326 20.5833 14.1686 20.5833C15.0113 20.5833 15.8457 20.4174 16.6242 20.0949C17.4027 19.7724 18.11 19.2998 18.7059 18.7039C19.3017 18.1081 19.7744 17.4007 20.0968 16.6222C20.4193 15.8437 20.5853 15.0093 20.5853 14.1667C20.5853 13.324 20.4193 12.4896 20.0968 11.7111C19.7744 10.9326 19.3017 10.2252 18.7059 9.6294C18.11 9.03356 17.4027 8.56091 16.6242 8.23844C15.8457 7.91597 15.0113 7.75 14.1686 7.75C13.326 7.75 12.4916 7.91597 11.7131 8.23844C10.9346 8.56091 10.2272 9.03356 9.63135 9.6294C9.03551 10.2252 8.56286 10.9326 8.24039 11.7111C7.91793 12.4896 7.75195 13.324 7.75195 14.1667Z" stroke="#F1FCF3" stroke-width="1.5" stroke-linecap="round" stroke-linejoin="round"/>
</svg>
