<svg width="30" height="30" viewBox="0 0 30 30" fill="none" xmlns="http://www.w3.org/2000/svg">
<circle cx="15" cy="15" r="15" fill="#082B13"/>
<path d="M22.7344 22.7344L17.5781 17.5781M7.26563 13.2812C7.26562 14.0712 7.42122 14.8535 7.72354 15.5833C8.02585 16.3132 8.46896 16.9763 9.02756 17.5349C9.58616 18.0935 10.2493 18.5366 10.9792 18.839C11.709 19.1413 12.4913 19.2969 13.2812 19.2969C14.0712 19.2969 14.8535 19.1413 15.5833 18.839C16.3132 18.5366 16.9763 18.0935 17.5349 17.5349C18.0935 16.9763 18.5366 16.3132 18.839 15.5833C19.1413 14.8535 19.2969 14.0712 19.2969 13.2812C19.2969 12.4913 19.1413 11.709 18.839 10.9792C18.5366 10.2493 18.0935 9.58616 17.5349 9.02756C16.9763 8.46896 16.3132 8.02585 15.5833 7.72354C14.8535 7.42122 14.0712 7.26563 13.2812 7.26562C12.4913 7.26563 11.709 7.42122 10.9792 7.72354C10.2493 8.02585 9.58616 8.46896 9.02756 9.02756C8.46896 9.58616 8.02585 10.2493 7.72354 10.9792C7.42122 11.709 7.26562 12.4913 7.26563 13.2812Z" stroke="#E4E2D6" stroke-width="1.5" stroke-linecap="round" stroke-linejoin="round"/>
</svg>
