<svg width="32" height="32" viewBox="0 0 32 32" fill="none" xmlns="http://www.w3.org/2000/svg">
<path fill-rule="evenodd" clip-rule="evenodd" d="M9.33329 29.3333C7.56518 29.3333 5.86949 28.6309 4.61925 27.3807C3.369 26.1304 2.66663 24.4348 2.66663 22.6666V18.6666C2.66663 18.313 2.8071 17.9739 3.05715 17.7238C3.3072 17.4738 3.64634 17.3333 3.99996 17.3333C4.35358 17.3333 4.69272 17.4738 4.94277 17.7238C5.19282 17.9739 5.33329 18.313 5.33329 18.6666V22.6666C5.33329 23.7275 5.75472 24.7449 6.50487 25.4951C7.25501 26.2452 8.27243 26.6666 9.33329 26.6666H22.6666C23.7275 26.6666 24.7449 26.2452 25.4951 25.4951C26.2452 24.7449 26.6666 23.7275 26.6666 22.6666V18.6666C26.6666 18.313 26.8071 17.9739 27.0571 17.7238C27.3072 17.4738 27.6463 17.3333 28 17.3333C28.3536 17.3333 28.6927 17.4738 28.9428 17.7238C29.1928 17.9739 29.3333 18.313 29.3333 18.6666V22.6666C29.3333 24.4348 28.6309 26.1304 27.3807 27.3807C26.1304 28.6309 24.4347 29.3333 22.6666 29.3333H9.33329Z" fill="black"/>
<path fill-rule="evenodd" clip-rule="evenodd" d="M9.71327 13.4667C9.59069 13.3414 9.494 13.1933 9.42872 13.0307C9.36345 12.868 9.33087 12.6941 9.33285 12.5189C9.33483 12.3437 9.37133 12.1706 9.44027 12.0095C9.5092 11.8484 9.60922 11.7024 9.7346 11.58L15.7346 5.71333C15.9837 5.46983 16.3182 5.3335 16.6666 5.3335C17.015 5.3335 17.3495 5.46983 17.5986 5.71333L23.5986 11.58C23.7265 11.7018 23.8289 11.8477 23.8999 12.0094C23.9709 12.171 24.0091 12.3452 24.0123 12.5217C24.0155 12.6983 23.9835 12.8737 23.9183 13.0378C23.8532 13.2019 23.756 13.3514 23.6326 13.4777C23.5092 13.604 23.3619 13.7045 23.1993 13.7733C23.0367 13.8422 22.862 13.8781 22.6855 13.8789C22.5089 13.8798 22.3339 13.8455 22.1707 13.7782C22.0075 13.7109 21.8592 13.6118 21.7346 13.4867L17.9999 9.83467V21.3333C17.9999 21.687 17.8595 22.0261 17.6094 22.2761C17.3594 22.5262 17.0202 22.6667 16.6666 22.6667C16.313 22.6667 15.9738 22.5262 15.7238 22.2761C15.4737 22.0261 15.3333 21.687 15.3333 21.3333V9.83467L11.5999 13.4867C11.4747 13.6092 11.3265 13.7059 11.1639 13.7712C11.0013 13.8365 10.8274 13.8691 10.6522 13.8671C10.477 13.8651 10.3038 13.8286 10.1427 13.7597C9.98163 13.6907 9.83569 13.5907 9.71327 13.4653V13.4667Z" fill="black"/>
</svg>
