<svg width="36" height="37" viewBox="0 0 36 37" fill="none" xmlns="http://www.w3.org/2000/svg">
<rect width="36" height="36.056" rx="18" fill="#082B13"/>
<path fill-rule="evenodd" clip-rule="evenodd" d="M9.88616 10L6.09116 15.1675L5.94566 15.358C5.16566 16.423 4.39766 17.452 4.12166 18.802C4.0249 19.2872 3.98563 19.7821 4.00466 20.2765C4.10666 23.2675 6.35366 26.056 9.91466 26.056C14.0547 26.056 16.3677 22.2835 15.6522 18.802C15.3747 17.452 14.6157 16.423 13.8267 15.358L13.6812 15.1675L9.88616 10ZM13.8567 16.123C12.6162 14.203 10.0827 11.0155 10.0827 11.0155C9.44266 12.4045 8.73766 13.7595 7.96766 15.0805C7.35266 16.1155 6.65366 16.9045 6.04766 17.5975C4.75616 19.072 3.81416 20.1445 4.65266 22.3045C5.80766 25.267 8.87966 26.3545 11.3247 25.114C14.3157 23.596 15.7032 18.97 13.8567 16.123Z" fill="#F1FCF3"/>
<path d="M17.8633 17.2988V18.0293H18.5923V23.1368H19.3228V20.5838H22.2418V23.1368H22.9708V17.2988H22.2418V19.8533H19.3228V17.2988H17.8633Z" fill="#F1FCF3"/>
<path fill-rule="evenodd" clip-rule="evenodd" d="M28.8086 23.1368C30.0206 23.1368 30.9986 21.8243 30.9986 20.2178C30.9986 18.6113 30.0206 17.2988 28.8086 17.2988C27.5966 17.2988 26.6201 18.6128 26.6201 20.2178C26.6201 21.8228 27.5966 23.1368 28.8086 23.1368ZM28.8101 22.4078C29.6141 22.4078 30.2711 21.4298 30.2711 20.2178C30.2711 19.0058 29.6126 18.0278 28.8086 18.0278C28.0046 18.0278 27.3491 19.0073 27.3491 20.2178C27.3491 21.4298 28.0061 22.4078 28.8101 22.4078Z" fill="#F1FCF3"/>
<path d="M24.0957 23.1369V22.9479L24.7962 22.1679L25.0002 21.9264C25.0485 21.8691 25.0879 21.8049 25.1172 21.7359C25.1458 21.6769 25.1611 21.6124 25.1622 21.5469C25.1629 21.4763 25.142 21.4072 25.1022 21.3489C25.0673 21.2923 25.0168 21.247 24.9567 21.2184C24.8932 21.1876 24.8233 21.1722 24.7527 21.1734C24.677 21.1769 24.6027 21.1947 24.5337 21.2259C24.4738 21.2594 24.4252 21.3101 24.3942 21.3714C24.3615 21.4396 24.3466 21.5149 24.3507 21.5904H24.1032C24.1006 21.5041 24.1159 21.4182 24.1482 21.3381C24.1805 21.2581 24.2291 21.1856 24.2908 21.1252C24.3526 21.0649 24.4262 21.018 24.507 20.9876C24.5878 20.9571 24.674 20.9438 24.7602 20.9484C24.8832 20.9504 24.9927 20.9769 25.0887 21.0279C25.1837 21.077 25.262 21.1532 25.3137 21.2469C25.373 21.3356 25.4039 21.4402 25.4022 21.5469C25.4022 21.6269 25.3872 21.7044 25.3572 21.7794C25.3209 21.8708 25.2719 21.9566 25.2117 22.0344C25.1417 22.1264 25.0447 22.2389 24.9207 22.3719L24.4452 22.8819V22.9044H25.4382V23.1369H24.0957Z" fill="#F1FCF3"/>
<path opacity="0.4" d="M13.8493 22.5098L13.9513 21.5318C13.5982 22.2172 13.0638 22.7926 12.4063 23.1954C11.7488 23.5982 10.9934 23.813 10.2223 23.8163C7.11285 23.8463 5.63235 20.5763 7.20735 18.1388C8.17085 16.7827 9.35534 15.5983 10.7113 14.6348L9.30135 12.6143C8.88135 13.4513 8.43435 14.2733 7.96035 15.0803C7.34685 16.1153 6.65385 16.9043 6.04035 17.5988C5.63235 18.0653 5.26035 18.4883 4.96785 18.9188C4.57474 19.9942 4.4617 21.152 4.63935 22.2833L4.64685 22.3058C5.80035 25.2683 8.87985 26.3558 11.3248 25.1153C12.4123 24.5268 13.2913 23.6168 13.8418 22.5098H13.8493Z" fill="#F1FCF3"/>
</svg>
